<svg width="24" height="24" fill="none" xmlns="http://www.w3.org/2000/svg"><path fill-rule="evenodd" clip-rule="evenodd" d="M21.857 16.051c1.678-4.796-1.537-9.964-6.153-9.891l-.25.004c-3.452.055-6.209 3.221-6.158 7.072.057 4.288 3.22 7.715 7.063 7.654l6.06-.096c.247-.004.464-.181.542-.442a.694.694 0 0 0-.194-.718l-1.545-1.344a.232.232 0 0 1-.062-.25l.697-1.989ZM15.72 7.456c3.791-.06 6.43 4.184 5.053 8.123l-.697 1.99c-.218.623-.043 1.332.43 1.743l.243.211-4.408.07c-3.202.051-5.836-2.803-5.883-6.375-.042-3.135 2.203-5.713 5.013-5.758l.25-.004Z" fill="#25a4ff"/><path fill-rule="evenodd" clip-rule="evenodd" d="M8.102 3c-4.617 0-7.763 5.218-6.02 9.988l.722 1.978a.232.232 0 0 1-.058.25l-1.528 1.369a.696.696 0 0 0-.185.72c.082.26.302.434.549.434h6.06c.7 0 1.213-.016 1.763-.032l.598-.017a8.258 8.258 0 0 1-1.37-4.596c0-3.373 1.959-6.245 4.7-7.333C12.191 4.083 10.384 3 8.351 3H8.1Z" fill="#25a4ff"/></svg>
