<svg width="24" height="24" fill="none" xmlns="http://www.w3.org/2000/svg"><path d="M7.516 11.034c-.802 0-1.452.664-1.452 1.482 0 .819.65 1.482 1.452 1.482.801 0 1.451-.663 1.451-1.482 0-.818-.65-1.482-1.451-1.482ZM12.16 11.034c-.801 0-1.451.664-1.451 1.482 0 .819.65 1.482 1.451 1.482.802 0 1.452-.663 1.452-1.482 0-.818-.65-1.482-1.452-1.482ZM15.354 12.516c0-.818.65-1.482 1.451-1.482.802 0 1.451.664 1.451 1.482 0 .819-.65 1.482-1.451 1.482-.802 0-1.451-.663-1.451-1.482Z" fill="#ABABAB"/><path fill-rule="evenodd" clip-rule="evenodd" d="M16.922 5.217a57.528 57.528 0 0 0-9.404-.047l-.225.017C4.308 5.417 2 7.957 2 11.014V21.11c0 .313.161.602.424.763.263.16.59.168.86.02l4.54-2.491c.212-.116.448-.177.687-.177h10.424c1.314 0 2.44-.96 2.676-2.28.478-2.676.516-5.414.112-8.103l-.119-.792c-.216-1.443-1.372-2.546-2.797-2.67l-1.885-.164ZM7.649 6.943a55.823 55.823 0 0 1 9.125.046l1.885.164a1.366 1.366 0 0 1 1.223 1.167l.12.793c.374 2.493.339 5.033-.104 7.514a.985.985 0 0 1-.963.82H8.51c-.527 0-1.047.134-1.511.39l-3.258 1.787v-8.61c0-2.127 1.605-3.894 3.682-4.054l.225-.017Z" fill="#ABABAB"/></svg>