<svg width="30" height="30" fill="none" xmlns="http://www.w3.org/2000/svg"><path d="M9.111 6.134c3.919-.34 7.86-.34 11.777 0l1.888.165a3.61 3.61 0 0 1 2.891 1.93.294.294 0 0 1-.114.385l-7.832 4.849a5.313 5.313 0 0 1-5.499.057L4.337 8.86a.295.295 0 0 1-.128-.366 3.61 3.61 0 0 1 3.015-2.195l1.887-.165Z" fill="#25a4ff"/><path d="M4.202 10.959a.31.31 0 0 0-.466.234 37.939 37.939 0 0 0 .23 9.449 3.61 3.61 0 0 0 3.258 3.06l1.887.163c3.919.341 7.86.341 11.777 0l1.888-.164a3.61 3.61 0 0 0 3.258-3.06c.484-3.22.551-6.489.201-9.723a.31.31 0 0 0-.471-.229l-7.056 4.368a7.187 7.187 0 0 1-7.44.077l-7.066-4.175Z" fill="#25a4ff"/></svg>
