<svg width="24" height="24" fill="none" xmlns="http://www.w3.org/2000/svg"><path d="M10.379 11.854c0-.443.344-.802.769-.802h6.154c.425 0 .77.359.77.802 0 .443-.345.802-.77.802h-6.154c-.425 0-.77-.36-.77-.802ZM11.333 8.837c0-.443.345-.802.77-.802h5.128c.425 0 .769.359.769.802 0 .443-.344.802-.77.802h-5.127c-.425 0-.77-.36-.77-.802ZM11.077 14.069c-.425 0-.77.36-.77.802 0 .443.345.802.77.802h6.154c.425 0 .769-.359.769-.802 0-.443-.344-.802-.77-.802H11.078Z" fill="#138CD5"/><path fill-rule="evenodd" clip-rule="evenodd" d="M18.049 22H4.716c-1.558 0-2.821-1.317-2.821-2.941v-5.882c0-.443.344-.802.77-.802h3.333V4.012C5.998 2 6 2 8 2h1-.105H20c1.5 0 1.895.504 1.895 2.026V17.99c0 2.215-1.722 4.01-3.846 4.01ZM15.28 3.808c-1.28 0-1.28-.002-2.8 0-2.703.005-3.17 0-4.944 0V19.06c0 .481-.11.936-.307 1.337h10.82c1.274 0 2.308-1.078 2.308-2.406V3.808H15.28ZM5.998 19.06v-5.08H3.433v5.08c0 .738.574 1.337 1.283 1.337.708 0 1.282-.599 1.282-1.337Z" fill="#25a4ff"/></svg>
