<svg width="24" height="24" fill="none" xmlns="http://www.w3.org/2000/svg"><path fill-rule="evenodd" clip-rule="evenodd" d="M2.272 19.693a1.029 1.029 0 0 1-.167-1.15l.907-1.852c2.148-4.385 3.86-9.012 8.614-9.012h.446c.033-.73.075-1.46.126-2.19l.088-1.245c.071-1.012 1.163-1.578 1.99-1.032a25.774 25.774 0 0 1 6.952 6.806l.59.85c.243.35.243.82 0 1.17l-.59.849a25.775 25.775 0 0 1-6.952 6.806c-.827.546-1.919-.02-1.99-1.031l-.088-1.245a85.028 85.028 0 0 1-.144-2.617c-2.781-.083-2.92 2.36-5.472 3.578l-3.205 1.53a.947.947 0 0 1-1.105-.215Zm2.87-2.837.626-.299c3.12-1.488 3.903-3.98 7.299-3.71.494.04.88.458.895.97.033 1.153.511 1.225.592 2.375l.008.1c2.126-1.554 3.568-2.385 5.09-4.575l.183-.264-.183-.264c-1.522-2.19-2.957-2.805-5.084-4.359l-.006.1c-.073 1.027-.554.759-.588 1.787-.018.54-.447.968-.97.968h-1.378c-3.748 0-4.56 3.893-6.484 7.171Z" fill="#ABABAB"/></svg>