<svg width="24" height="24" fill="none" xmlns="http://www.w3.org/2000/svg"><g clip-path="url(#a)" stroke="#25a4ff" stroke-width="2" stroke-linecap="round" stroke-linejoin="round"><path d="M12 14.75a2.75 2.75 0 1 0 0-5.5 2.75 2.75 0 0 0 0 5.5Z"/><path d="M18.783 14.75a1.511 1.511 0 0 0 .303 1.668l.055.055a1.834 1.834 0 1 1-2.594 2.595l-.056-.056a1.512 1.512 0 0 0-1.668-.302 1.512 1.512 0 0 0-.917 1.384v.156a1.833 1.833 0 0 1-3.666 0v-.082a1.513 1.513 0 0 0-.99-1.385 1.513 1.513 0 0 0-1.668.303l-.055.055a1.833 1.833 0 0 1-2.993-2c.093-.222.228-.424.398-.594l.055-.055a1.512 1.512 0 0 0 .303-1.669 1.512 1.512 0 0 0-1.384-.916H3.75a1.833 1.833 0 1 1 0-3.667h.082a1.512 1.512 0 0 0 1.385-.99 1.512 1.512 0 0 0-.303-1.668l-.055-.055a1.833 1.833 0 1 1 2.594-2.595l.055.055a1.512 1.512 0 0 0 1.669.303h.073a1.513 1.513 0 0 0 .916-1.384V3.75a1.833 1.833 0 0 1 3.667 0v.082a1.512 1.512 0 0 0 .917 1.385 1.513 1.513 0 0 0 1.668-.303l.055-.055a1.832 1.832 0 0 1 2.992.595 1.834 1.834 0 0 1-.398 2l-.055.054a1.513 1.513 0 0 0-.302 1.669v.073a1.513 1.513 0 0 0 1.384.917h.156a1.833 1.833 0 0 1 0 3.666h-.083a1.514 1.514 0 0 0-1.384.917v0Z"/></g><defs><clipPath id="a"><path fill="#fff" transform="translate(1 1)" d="M0 0h22v22H0z"/></clipPath></defs></svg>
