<svg width="24" height="24" fill="none" xmlns="http://www.w3.org/2000/svg"><path fill-rule="evenodd" clip-rule="evenodd" d="M4.128 7.006A5.01 5.01 0 0 1 9.141 2a5.01 5.01 0 0 1 5.013 5.006 5.01 5.01 0 0 1-5.013 5.006 5.01 5.01 0 0 1-5.013-5.006Zm5.013-3.24a3.241 3.241 0 0 0-3.244 3.24 3.241 3.241 0 0 0 3.244 3.24 3.241 3.241 0 0 0 3.244-3.24 3.241 3.241 0 0 0-3.244-3.24ZM0 18.196a4.42 4.42 0 0 1 4.423-4.417h.402c.218 0 .434.035.64.102l1.022.333a8.561 8.561 0 0 0 5.308 0l1.021-.333a2.08 2.08 0 0 1 .64-.102h.403a4.42 4.42 0 0 1 4.423 4.417v1.4c0 .887-.644 1.644-1.52 1.787a47.353 47.353 0 0 1-15.241 0A1.811 1.811 0 0 1 0 19.596v-1.4Zm4.423-2.65a2.652 2.652 0 0 0-2.654 2.65v1.4c0 .021.016.04.037.043 4.858.792 9.812.792 14.67 0a.043.043 0 0 0 .037-.043v-1.4a2.652 2.652 0 0 0-2.654-2.65h-.402a.296.296 0 0 0-.092.015l-1.02.332a10.333 10.333 0 0 1-6.407 0l-1.021-.332a.296.296 0 0 0-.092-.015h-.402Z" fill="#25a4ff"/><path d="M19.167 5.534c.488 0 .884.395.884.883V8.48h2.064a.884.884 0 1 1 0 1.767h-2.064v2.06a.884.884 0 0 1-1.769 0v-2.06h-2.064a.884.884 0 1 1 0-1.767h2.064V6.417c0-.488.396-.883.885-.883Z" fill="#25a4ff"/></svg>
