<svg width="24" height="24" fill="none" xmlns="http://www.w3.org/2000/svg"><path fill-rule="evenodd" clip-rule="evenodd" d="M3.299 8.535c0-2.25 1.793-4.313 4.005-4.313 2.213 0 4.006 2.064 4.006 4.313 0 2.25-1.793 4.314-4.006 4.314-2.212 0-4.005-2.064-4.005-4.314ZM7.304 5.9c-1.431 0-2.592 1.18-2.592 2.635 0 1.456 1.16 2.636 2.592 2.636 1.432 0 2.592-1.18 2.592-2.636 0-1.455-1.16-2.635-2.592-2.635Zm-3.77 9.585c-1.17 0-2.12.007-2.12 1.198v1.139c0 .017.012.032.029.035a35.78 35.78 0 0 0 11.723 0 .035.035 0 0 0 .029-.035v-1.14c0-1.19-.95-1.197-2.12-1.197h-.322a.23.23 0 0 0-.073.011l-.816.271a8.117 8.117 0 0 1-5.12 0l-.815-.27a.23.23 0 0 0-.073-.012h-.322ZM0 16.683c0-1.985 1.582-2.636 3.534-2.636h.322c.174 0 .346.028.512.083l.815.27a6.724 6.724 0 0 0 4.242 0l.816-.27a1.62 1.62 0 0 1 .512-.083h.321c1.952 0 3.535.65 3.535 2.636v1.139c0 .722-.515 1.337-1.215 1.454-4.033.67-8.146.67-12.179 0A1.466 1.466 0 0 1 0 17.822v-1.14Zm12.69-7.925c0-2.25 1.794-4.314 4.006-4.314s4.006 2.064 4.006 4.314-1.794 4.313-4.006 4.313-4.006-2.063-4.006-4.313Zm4.006-2.636c-1.432 0-2.592 1.18-2.592 2.636 0 1.456 1.16 2.636 2.592 2.636 1.431 0 2.592-1.18 2.592-2.636 0-1.456-1.16-2.636-2.592-2.636Z" fill="#25a4ff"/><path fill-rule="evenodd" clip-rule="evenodd" d="M12.926 15.707c-1.171 0-2.12.007-2.12 1.198v1.139c0 .017.012.032.029.035a35.78 35.78 0 0 0 11.722 0 .035.035 0 0 0 .03-.035v-1.139c0-1.191-.95-1.198-2.121-1.198h-.321a.23.23 0 0 0-.073.012l-.816.27a8.117 8.117 0 0 1-5.12 0l-.816-.27a.23.23 0 0 0-.073-.012h-.321Zm-3.534 1.198c0-1.985 1.582-2.636 3.534-2.636h.321c.174 0 .347.028.512.083l.816.27a6.724 6.724 0 0 0 4.242 0l.816-.27a1.62 1.62 0 0 1 .512-.083h.32c1.953 0 3.535.65 3.535 2.636v1.139c0 .722-.514 1.337-1.215 1.454-4.033.67-8.146.67-12.178 0a1.466 1.466 0 0 1-1.215-1.454v-1.139Z" fill="#25a4ff"/><path d="M7.214 6.93C7.214 4.357 9.357 2 12 2s4.786 2.358 4.786 4.93c0 2.57-2.143 4.929-4.786 4.929S7.214 9.5 7.214 6.929Zm-3.941 9.31c0-2.268 1.89-3.012 4.223-3.012h.384c.207 0 .414.032.611.095l.975.31a8.38 8.38 0 0 0 5.068 0l.975-.31c.198-.063.404-.095.612-.095h.384c2.332 0 4.223.744 4.223 3.013v1.301c0 .825-.615 1.529-1.452 1.662a46.397 46.397 0 0 1-14.551 0c-.837-.133-1.452-.837-1.452-1.662v-1.301Z" fill="#25a4ff"/><path d="M7.214 6.93C7.214 4.357 9.357 2 12 2s4.786 2.358 4.786 4.93c0 2.57-2.143 4.929-4.786 4.929S7.214 9.5 7.214 6.929Zm-3.941 9.31c0-2.268 1.89-3.012 4.223-3.012h.384c.207 0 .414.032.611.095l.975.31a8.38 8.38 0 0 0 5.068 0l.975-.31c.198-.063.404-.095.612-.095h.384c2.332 0 4.223.744 4.223 3.013v1.301c0 .825-.615 1.529-1.452 1.662a46.397 46.397 0 0 1-14.551 0c-.837-.133-1.452-.837-1.452-1.662v-1.301Z" stroke="#fff"/></svg>
