<svg width="30" height="30" fill="none" xmlns="http://www.w3.org/2000/svg"><path fill-rule="evenodd" clip-rule="evenodd" d="M23.104 24.738v-.003l.023-.054 3.748-18.899v-.061c0-.471-.174-.882-.553-1.129-.331-.216-.712-.23-.98-.21a3.306 3.306 0 0 0-.732.15 4.01 4.01 0 0 0-.3.109l-.016.007-20.9 8.198-.006.002a2.21 2.21 0 0 0-.187.077c-.112.051-.268.13-.426.239-.269.183-.78.619-.694 1.31.072.57.466.934.731 1.122a2.583 2.583 0 0 0 .544.292l.013.005.009.003 3.656 1.231c-.012.23.01.464.072.694l1.831 6.948a1.875 1.875 0 0 0 3.543.246l2.86-3.058 4.911 3.765.07.03c.446.196.863.257 1.244.205.381-.052.683-.211.91-.393a2.18 2.18 0 0 0 .615-.793l.01-.022.003-.008v-.003ZM8.919 17.343a.375.375 0 0 1 .161-.412l12.403-7.876s.73-.443.703 0c0 0 .13.078-.26.443-.371.346-8.84 8.523-9.697 9.35a.347.347 0 0 0-.096.17L10.75 24.29 8.92 17.343Z" fill="#25a4ff"/></svg>
