<svg width="66" height="66" fill="none" xmlns="http://www.w3.org/2000/svg"><rect x="1.5" y="1.5" width="63" height="63" rx="7.5" stroke="url(#a)" stroke-width="3"/><rect x="4.364" y="4.364" width="57.273" height="57.273" rx="6" fill="#F5F5F5"/><path fill-rule="evenodd" clip-rule="evenodd" d="M44.67 15.534 33.053 9.818l-11.618 5.716-11.511 5.875-.106 11.59.106 11.592 11.511 5.875 11.618 5.716 11.617-5.716 11.511-5.875h-5.894l-7.138 3.66-10.096 4.99-10.097-4.99-10.004-5.13L12.86 33l.092-10.121 10.004-5.13 10.097-4.99 10.096 4.99 7.138 3.66h5.895L44.67 15.534Z" fill="url(#b)"/><path fill="url(#c)" d="M19.895 28.137H45.95v2.262H19.895z"/><path fill="url(#d)" d="M15.986 24.066h33.872v3.166H15.986z"/><path transform="rotate(90 35.526 31.53)" fill="url(#e)" d="M35.526 31.53H48.87v5.211H35.526z"/><defs><linearGradient id="a" x1="3" y1="3" x2="63" y2="67.773" gradientUnits="userSpaceOnUse"><stop stop-color="#C86000" stop-opacity=".83"/><stop offset="1" stop-color="#25A3FF" stop-opacity=".8"/></linearGradient><linearGradient id="b" x1="9.818" y1="9.818" x2="56.181" y2="59.87" gradientUnits="userSpaceOnUse"><stop stop-color="#C86000" stop-opacity=".83"/><stop offset="1" stop-color="#25A3FF" stop-opacity=".8"/></linearGradient><linearGradient id="c" x1="19.895" y1="28.137" x2="20.257" y2="32.645" gradientUnits="userSpaceOnUse"><stop stop-color="#C86000" stop-opacity=".83"/><stop offset="1" stop-color="#25A3FF" stop-opacity=".8"/></linearGradient><linearGradient id="d" x1="15.986" y1="24.066" x2="16.532" y2="30.37" gradientUnits="userSpaceOnUse"><stop stop-color="#C86000" stop-opacity=".83"/><stop offset="1" stop-color="#25A3FF" stop-opacity=".8"/></linearGradient><linearGradient id="e" x1="35.526" y1="31.53" x2="38.87" y2="40.773" gradientUnits="userSpaceOnUse"><stop stop-color="#C86000" stop-opacity=".83"/><stop offset="1" stop-color="#25A3FF" stop-opacity=".8"/></linearGradient></defs></svg>