<svg width="186" height="50" fill="none" xmlns="http://www.w3.org/2000/svg"><rect x="1.5" y="1.5" width="47" height="47" rx="7.5" stroke="url(#a)" stroke-width="3"/><rect x="4" y="4" width="42" height="42" rx="6" fill="#F5F5F5"/><path fill-rule="evenodd" clip-rule="evenodd" d="M33.558 12.191 25.038 8l-8.518 4.191L8.078 16.5 8 25l.078 8.5 8.442 4.309L25.038 42l8.52-4.191L42 33.5h-4.323l-5.234 2.684-7.404 3.66-7.404-3.66-7.336-3.762L10.23 25l.068-7.422 7.336-3.762 7.404-3.66 7.404 3.66 5.234 2.684H42l-8.442-4.309Z" fill="url(#b)"/><path fill="url(#c)" d="M15.39 21.434h19.107v1.659H15.39z"/><path fill="url(#d)" d="M12.523 18.449h24.84v2.322h-24.84z"/><path transform="rotate(90 26.852 23.922)" fill="url(#e)" d="M26.852 23.922h9.785v3.821h-9.785z"/><path d="M64.7 15.516V34h-3.48V15.516h3.48Zm5.737 0v2.754H55.547v-2.754h14.892Zm7.046 18.738c-1.04 0-1.976-.17-2.805-.508a6.16 6.16 0 0 1-2.12-1.41 6.48 6.48 0 0 1-1.333-2.12 7.387 7.387 0 0 1-.457-2.614v-.508c0-1.058.152-2.019.457-2.882.304-.872.736-1.62 1.294-2.247a5.699 5.699 0 0 1 2.006-1.447c.779-.339 1.638-.508 2.578-.508.973 0 1.832.165 2.577.495a4.984 4.984 0 0 1 1.866 1.371c.5.592.876 1.303 1.13 2.133.254.82.38 1.73.38 2.73v1.409H72.292v-2.311h7.465v-.254a4.047 4.047 0 0 0-.305-1.46 2.334 2.334 0 0 0-.863-1.066c-.39-.271-.893-.407-1.51-.407-.5 0-.936.11-1.309.33a2.623 2.623 0 0 0-.913.915c-.237.389-.415.854-.534 1.396a8.451 8.451 0 0 0-.178 1.803v.508c0 .575.077 1.108.229 1.6.16.49.394.917.698 1.281.313.356.686.635 1.118.838.44.195.939.292 1.498.292.702 0 1.337-.135 1.904-.406a4.241 4.241 0 0 0 1.498-1.231l1.688 1.752c-.287.423-.677.829-1.168 1.218-.482.39-1.066.707-1.752.952-.685.237-1.477.356-2.374.356ZM92.87 31.08v-6.335c0-.465-.08-.867-.241-1.206-.16-.338-.406-.6-.736-.787-.33-.186-.75-.28-1.257-.28-.449 0-.842.077-1.18.23a1.74 1.74 0 0 0-.763.647c-.177.27-.266.584-.266.94h-3.365c0-.568.136-1.105.407-1.613.27-.516.656-.973 1.155-1.371a5.694 5.694 0 0 1 1.816-.953c.71-.228 1.506-.342 2.386-.342 1.041 0 1.968.177 2.78.533.821.347 1.465.872 1.93 1.574.474.703.711 1.587.711 2.653v5.993c0 .685.042 1.273.127 1.764.093.483.229.902.406 1.257V34h-3.415c-.16-.347-.283-.787-.368-1.32a10.344 10.344 0 0 1-.127-1.6Zm.47-5.446.025 1.993h-2.12c-.525 0-.986.055-1.384.165-.398.102-.723.254-.977.457a1.854 1.854 0 0 0-.572.711c-.126.27-.19.58-.19.927 0 .338.076.643.229.914.16.27.389.486.685.647.305.153.66.229 1.067.229.592 0 1.108-.119 1.548-.356.44-.245.783-.541 1.029-.888.245-.347.376-.677.393-.99l.965 1.447a5.674 5.674 0 0 1-.533 1.104c-.237.39-.542.753-.914 1.092-.373.339-.821.618-1.346.838-.525.22-1.134.33-1.828.33-.889 0-1.684-.178-2.387-.533a4.23 4.23 0 0 1-1.663-1.46c-.406-.618-.61-1.32-.61-2.108 0-.727.136-1.37.407-1.93a3.699 3.699 0 0 1 1.206-1.409c.533-.389 1.194-.68 1.98-.875.796-.204 1.706-.305 2.73-.305h2.26Zm9.267-2.552V34h-3.351V20.264h3.161l.19 2.818Zm-.495 3.555h-1.028c0-.957.114-1.837.343-2.64.237-.805.584-1.503 1.041-2.096a4.727 4.727 0 0 1 1.688-1.396c.677-.33 1.46-.495 2.349-.495.618 0 1.185.093 1.701.28.516.177.961.46 1.333.85.381.38.673.88.876 1.498.203.61.305 1.341.305 2.196V34h-3.352v-8.823c0-.643-.093-1.147-.279-1.511-.178-.364-.436-.618-.775-.762-.338-.152-.744-.228-1.218-.228-.525 0-.978.106-1.359.317a2.616 2.616 0 0 0-.926.85 4.123 4.123 0 0 0-.534 1.258c-.11.474-.165.986-.165 1.536Zm8.354-.622-1.384.254a8.572 8.572 0 0 1 .356-2.425 6.039 6.039 0 0 1 1.002-1.993 4.678 4.678 0 0 1 1.664-1.346c.668-.33 1.438-.495 2.31-.495.677 0 1.287.097 1.828.292.55.186 1.02.486 1.409.901.39.406.686.935.889 1.587.212.652.317 1.447.317 2.387V34h-3.377v-8.836c0-.669-.093-1.18-.279-1.536-.178-.355-.436-.601-.774-.736-.339-.144-.737-.216-1.194-.216-.465 0-.871.089-1.218.266-.339.17-.627.407-.864.711-.228.305-.402.66-.52 1.067-.11.398-.165.83-.165 1.295Zm22.471 1.904h3.491c-.093 1.236-.436 2.332-1.029 3.288-.592.948-1.417 1.693-2.475 2.234-1.058.542-2.34.813-3.847.813-1.159 0-2.205-.203-3.136-.61a6.799 6.799 0 0 1-2.374-1.764c-.651-.77-1.151-1.693-1.498-2.768-.347-1.083-.52-2.297-.52-3.643v-1.41c0-1.345.178-2.56.533-3.643.356-1.083.863-2.006 1.523-2.768a6.816 6.816 0 0 1 2.4-1.777c.939-.415 1.989-.622 3.148-.622 1.507 0 2.781.28 3.822.838 1.041.55 1.849 1.308 2.424 2.272.576.965.923 2.074 1.041 3.326h-3.491c-.067-.778-.237-1.438-.508-1.98a2.669 2.669 0 0 0-1.193-1.231c-.525-.288-1.223-.432-2.095-.432-.677 0-1.273.127-1.79.38a3.27 3.27 0 0 0-1.269 1.143c-.339.5-.593 1.126-.762 1.88-.169.744-.254 1.607-.254 2.59v1.434c0 .94.076 1.781.229 2.526.152.745.389 1.375.711 1.892.321.516.736.91 1.244 1.18.508.271 1.113.407 1.815.407.855 0 1.549-.136 2.082-.407.542-.27.952-.668 1.232-1.193.287-.525.469-1.176.546-1.955Zm5.344-.648v-.266c0-1.007.144-1.934.432-2.78a6.44 6.44 0 0 1 1.257-2.222 5.66 5.66 0 0 1 2.018-1.46c.796-.355 1.701-.533 2.717-.533 1.033 0 1.947.177 2.742.533a5.642 5.642 0 0 1 2.032 1.46c.55.626.969 1.367 1.256 2.222.288.846.432 1.773.432 2.78v.267c0 .998-.144 1.925-.432 2.78a6.579 6.579 0 0 1-1.256 2.221 5.663 5.663 0 0 1-2.019 1.46c-.796.347-1.705.52-2.73.52-1.015 0-1.925-.173-2.729-.52a5.63 5.63 0 0 1-2.031-1.46 6.598 6.598 0 0 1-1.257-2.221 8.657 8.657 0 0 1-.432-2.78Zm3.352-.266v.267c0 .6.059 1.163.178 1.688.118.525.3.986.545 1.384.246.397.563.71.953.94.397.22.871.33 1.421.33.542 0 1.008-.11 1.397-.33.389-.23.707-.543.952-.94.254-.398.44-.86.559-1.384a7.686 7.686 0 0 0 .177-1.689v-.266c0-.593-.059-1.147-.177-1.663a4.327 4.327 0 0 0-.559-1.384 2.662 2.662 0 0 0-.965-.952c-.389-.237-.859-.356-1.409-.356-.542 0-1.007.119-1.396.356-.39.228-.707.546-.953.952-.245.398-.427.86-.545 1.384a7.393 7.393 0 0 0-.178 1.663Zm20.211 4.075V14.5h3.377V34h-3.047l-.33-2.92Zm-8.823-3.783v-.267c0-1.05.118-2.001.355-2.856.245-.863.601-1.604 1.066-2.222a4.899 4.899 0 0 1 1.689-1.434c.668-.339 1.426-.508 2.272-.508.821 0 1.536.165 2.146.495.618.33 1.142.8 1.574 1.41.44.608.791 1.332 1.054 2.17.262.83.453 1.743.571 2.742v.724a14.356 14.356 0 0 1-.571 2.679 7.626 7.626 0 0 1-1.054 2.132 4.587 4.587 0 0 1-1.574 1.397c-.618.33-1.342.495-2.171.495-.838 0-1.591-.174-2.26-.52a4.963 4.963 0 0 1-1.688-1.46c-.457-.627-.809-1.363-1.054-2.21a10.236 10.236 0 0 1-.355-2.767Zm3.364-.267v.267c0 .592.051 1.147.152 1.663.102.516.267.973.495 1.371.229.39.521.694.876.914.364.22.804.33 1.321.33.66 0 1.201-.144 1.625-.431a2.934 2.934 0 0 0 1.002-1.206c.237-.517.39-1.096.457-1.74v-1.993a5.583 5.583 0 0 0-.266-1.41 3.35 3.35 0 0 0-.584-1.116 2.592 2.592 0 0 0-.914-.737c-.364-.177-.796-.266-1.295-.266-.516 0-.956.114-1.32.343-.364.22-.661.529-.889.926-.229.398-.398.86-.508 1.384a9.003 9.003 0 0 0-.152 1.701Zm18.04 7.224c-1.041 0-1.976-.17-2.806-.508a6.164 6.164 0 0 1-2.12-1.41 6.486 6.486 0 0 1-1.333-2.12 7.38 7.38 0 0 1-.457-2.614v-.508c0-1.058.152-2.019.457-2.882.305-.872.736-1.62 1.295-2.247a5.7 5.7 0 0 1 2.006-1.447c.778-.339 1.637-.508 2.577-.508.973 0 1.832.165 2.577.495a4.978 4.978 0 0 1 1.866 1.371c.5.592.876 1.303 1.13 2.133.254.82.381 1.73.381 2.73v1.409h-10.766v-2.311h7.465v-.254a4.051 4.051 0 0 0-.304-1.46 2.336 2.336 0 0 0-.864-1.066c-.389-.271-.893-.407-1.51-.407-.5 0-.936.11-1.308.33a2.62 2.62 0 0 0-.914.915 4.52 4.52 0 0 0-.533 1.396 8.419 8.419 0 0 0-.178 1.803v.508c0 .575.076 1.108.228 1.6.161.49.394.917.699 1.281.313.356.685.635 1.117.838.44.195.939.292 1.498.292.702 0 1.337-.135 1.904-.406a4.235 4.235 0 0 0 1.498-1.231l1.689 1.752c-.288.423-.677.829-1.168 1.218-.483.39-1.067.707-1.752.952-.686.237-1.477.356-2.374.356Z" fill="#040709"/><defs><linearGradient id="a" x1="3" y1="3" x2="47" y2="50.5" gradientUnits="userSpaceOnUse"><stop stop-color="#C86000" stop-opacity=".83"/><stop offset="1" stop-color="#25A3FF" stop-opacity=".8"/></linearGradient><linearGradient id="b" x1="8" y1="8" x2="42" y2="44.705" gradientUnits="userSpaceOnUse"><stop stop-color="#C86000" stop-opacity=".83"/><stop offset="1" stop-color="#25A3FF" stop-opacity=".8"/></linearGradient><linearGradient id="c" x1="15.39" y1="21.434" x2="15.655" y2="24.739" gradientUnits="userSpaceOnUse"><stop stop-color="#C86000" stop-opacity=".83"/><stop offset="1" stop-color="#25A3FF" stop-opacity=".8"/></linearGradient><linearGradient id="d" x1="12.523" y1="18.449" x2="12.924" y2="23.072" gradientUnits="userSpaceOnUse"><stop stop-color="#C86000" stop-opacity=".83"/><stop offset="1" stop-color="#25A3FF" stop-opacity=".8"/></linearGradient><linearGradient id="e" x1="26.852" y1="23.922" x2="29.305" y2="30.7" gradientUnits="userSpaceOnUse"><stop stop-color="#C86000" stop-opacity=".83"/><stop offset="1" stop-color="#25A3FF" stop-opacity=".8"/></linearGradient></defs></svg>